<?xml version="1.0" standalone="no"?>
<!DOCTYPE svg PUBLIC "-//W3C//DTD SVG 20010904//EN"
 "http://www.w3.org/TR/2001/REC-SVG-20010904/DTD/svg10.dtd">
<svg version="1.0" xmlns="http://www.w3.org/2000/svg"
 width="378.000000pt" height="220.000000pt" viewBox="0 0 378.000000 220.000000"
 preserveAspectRatio="xMidYMid meet">

<g transform="translate(0.000000,220.000000) scale(0.100000,-0.100000)"
fill="#61dafb" stroke="none">
<path d="M448 1966 c-58 -16 -89 -36 -123 -80 -46 -60 -51 -121 -32 -343 10
-109 17 -215 17 -236 0 -85 -49 -140 -137 -153 -33 -5 -43 -11 -43 -25 0 -21
6 -24 63 -34 23 -4 53 -19 75 -39 32 -30 36 -39 40 -95 2 -34 -3 -136 -13
-228 -22 -211 -18 -287 21 -350 38 -61 103 -96 191 -101 58 -4 65 -3 61 13 -2
11 -20 23 -47 31 -47 14 -85 44 -107 86 -18 36 -18 163 1 298 22 152 21 259
-3 312 -21 48 -34 61 -88 88 l-39 18 30 12 c41 15 84 58 102 99 19 44 18 197
-2 316 -19 114 -19 245 -1 289 16 39 55 69 114 86 30 9 42 19 42 32 0 14 -7
18 -37 17 -21 0 -59 -6 -85 -13z"/>
<path d="M3210 1963 c0 -15 11 -23 43 -32 59 -18 103 -54 117 -97 14 -41 9
-187 -10 -344 -26 -204 2 -300 97 -342 l46 -20 -40 -18 c-21 -9 -51 -31 -66
-49 -50 -60 -57 -124 -32 -331 34 -289 13 -369 -106 -404 -27 -8 -45 -20 -47
-31 -4 -16 3 -17 61 -13 89 5 153 39 192 103 29 46 30 53 29 154 0 58 -4 187
-8 286 -6 141 -4 185 6 205 15 30 91 70 130 70 23 0 28 4 28 23 0 20 -8 26
-52 36 -58 13 -75 23 -101 61 -21 30 -22 102 -5 352 14 212 6 263 -47 326 -40
46 -93 70 -176 79 -54 5 -59 4 -59 -14z"/>
<path d="M1058 1566 c-65 -34 -121 -65 -125 -69 -5 -5 15 -28 42 -52 l50 -44
0 -351 0 -352 -28 -24 c-15 -13 -40 -24 -55 -24 -55 0 -73 -11 -70 -39 l3 -26
240 0 240 0 3 27 c3 25 -1 27 -53 38 -92 19 -90 11 -90 375 l0 311 26 40 c36
54 114 95 193 101 110 9 184 -26 229 -111 21 -40 22 -50 22 -352 0 -358 3
-345 -92 -364 -50 -11 -54 -13 -51 -38 l3 -27 240 0 240 0 3 27 c3 22 -1 27
-27 32 -17 3 -45 9 -61 12 -62 12 -65 27 -68 345 -3 198 0 299 8 330 38 141
278 201 395 98 65 -57 70 -88 70 -419 0 -347 2 -341 -90 -360 -52 -11 -56 -13
-53 -38 l3 -26 255 -2 c226 -1 259 1 290 17 46 22 85 65 104 111 23 53 20 223
-4 388 -26 170 -27 306 -4 355 23 50 72 88 137 109 49 15 57 21 57 42 0 21 -4
24 -41 24 -23 0 -73 -9 -112 -21 -98 -29 -159 -87 -187 -176 -24 -79 -25 -130
-4 -321 9 -81 17 -203 18 -272 1 -116 -1 -127 -22 -158 -20 -27 -30 -32 -62
-32 -27 0 -48 8 -67 24 l-28 24 -5 344 c-5 334 -6 344 -29 395 -50 112 -157
171 -290 160 -93 -7 -151 -28 -264 -92 l-98 -56 -57 59 c-48 50 -69 63 -117
77 -112 33 -241 7 -376 -74 -81 -49 -92 -43 -87 48 3 60 1 66 -17 67 -11 1
-73 -26 -137 -60z"/>
</g>
</svg>
